<svg width="188" height="188" viewBox="0 0 188 188" fill="none" xmlns="http://www.w3.org/2000/svg">
<path d="M170.854 76.9627C179.435 115.831 157.725 154.323 121.459 167.798C118.067 169.055 114.544 170.099 110.91 170.901C106.716 171.827 102.524 172.402 98.3702 172.64C60.4373 174.827 25.445 149.232 16.9896 110.929C7.60673 68.4265 34.4473 26.3646 76.9377 16.9846C119.428 7.60449 161.482 34.4574 170.865 76.9604L170.854 76.9627Z" fill="#FFFAFA"/>
<path d="M101.286 76.418L104.987 93.183L125.72 88.606L127.423 111.914L109.973 115.766L121.459 167.798C118.068 169.055 114.544 170.099 110.911 170.901C106.717 171.827 102.524 172.402 98.3705 172.64L86.9378 120.852L67.8166 125.073L62.8311 102.489L81.9523 98.2681L77.424 77.7554C74.6146 65.0294 82.6488 52.4317 95.3765 49.6219L95.3789 49.6327C95.4167 49.6244 95.4466 49.6065 95.4844 49.5981L116.11 45.045L120.421 64.5763L106.944 67.5514C102.939 68.4356 100.406 72.4049 101.291 76.4114L101.286 76.418Z" fill="#383D38"/>
</svg>
